<svg width="37" height="48" viewBox="0 0 37 48" fill="none" xmlns="http://www.w3.org/2000/svg">
<path fill-rule="evenodd" clip-rule="evenodd" d="M27.0087 45.104C28.0327 46.128 29.2487 46.64 30.6567 46.64C32.0647 46.64 33.2807 46.128 34.3047 45.104C35.3287 44.08 35.8407 42.864 35.8407 41.456C35.8407 40.0053 35.3287 38.768 34.3047 37.744C33.2807 36.72 32.0647 36.208 30.6567 36.208C29.2487 36.208 28.0327 36.72 27.0087 37.744C25.9847 38.768 25.4727 40.0053 25.4727 41.456C25.4727 42.864 25.9847 44.08 27.0087 45.104ZM30.6567 47.64C28.9751 47.64 27.5071 47.0167 26.3015 45.8111C25.096 44.6056 24.4727 43.1376 24.4727 41.456C24.4727 39.7406 25.0896 38.2488 26.3015 37.0369C27.5071 35.8313 28.9751 35.208 30.6567 35.208C32.3382 35.208 33.8062 35.8313 35.0118 37.0369C36.2237 38.2488 36.8407 39.7406 36.8407 41.456C36.8407 43.1376 36.2173 44.6056 35.0118 45.8111C33.8062 47.0167 32.3382 47.64 30.6567 47.64Z" fill="#FFFDF4"/>
<path fill-rule="evenodd" clip-rule="evenodd" d="M9.45599 47V11.5952L0.687988 15.2432V5.391L13.4605 0.200012H20.224V47H9.45599ZM10.456 10.096V46H19.224V1.20001H13.656L1.68799 6.06401V13.744L10.456 10.096Z" fill="#FFFDF4"/>
</svg>
