<svg width="52" height="49" viewBox="0 0 52 49" fill="none" xmlns="http://www.w3.org/2000/svg">
<path fill-rule="evenodd" clip-rule="evenodd" d="M41.1957 46.1039C42.2197 47.1279 43.4357 47.6399 44.8437 47.6399C46.2517 47.6399 47.4677 47.1279 48.4917 46.1039C49.5157 45.0799 50.0277 43.8639 50.0277 42.4559C50.0277 41.0053 49.5157 39.7679 48.4917 38.7439C47.4677 37.7199 46.2517 37.2079 44.8437 37.2079C43.4357 37.2079 42.2197 37.7199 41.1957 38.7439C40.1717 39.7679 39.6597 41.0053 39.6597 42.4559C39.6597 43.8639 40.1717 45.0799 41.1957 46.1039ZM44.8437 48.6399C43.1621 48.6399 41.6941 48.0166 40.4886 46.8111C39.283 45.6055 38.6597 44.1375 38.6597 42.4559C38.6597 40.7406 39.2767 39.2487 40.4886 38.0368C41.6941 36.8313 43.1621 36.2079 44.8437 36.2079C46.5252 36.2079 47.9932 36.8313 49.1988 38.0368C50.4107 39.2487 51.0277 40.7406 51.0277 42.4559C51.0277 44.1375 50.4043 45.6055 49.1988 46.8111C47.9932 48.0166 46.5252 48.6399 44.8437 48.6399Z" fill="#FFFDF4"/>
<path fill-rule="evenodd" clip-rule="evenodd" d="M2.29225 48V40.5737L21.2625 21.3436C22.1248 20.4396 22.7811 19.6193 23.2468 18.882L23.2566 18.8664L23.2669 18.8513C23.7734 18.1111 24.1028 17.4211 24.2807 16.7803L24.2854 16.7635L24.2907 16.7468C24.5174 16.0288 24.6283 15.3196 24.6283 14.616C24.6283 13.2846 24.0861 12.178 22.8974 11.2415L22.8915 11.2368L22.8857 11.2321C21.7342 10.2965 20.2225 9.79197 18.2683 9.79197C16.364 9.79197 14.6163 10.1875 13.0107 10.9707L13.0017 10.9751L12.9927 10.9793C11.3805 11.7264 9.55137 13.0543 7.50448 15.0177L6.72542 15.7649L0.707031 8.44525L1.39437 7.80451C3.9821 5.39221 6.70102 3.5735 9.55347 2.36917C12.409 1.12085 15.4021 0.495972 18.5243 0.495972C21.671 0.495972 24.4857 1.05025 26.9444 2.1885C29.3926 3.32194 31.3331 4.905 32.7265 6.94863C34.1318 9.00975 34.8203 11.4083 34.8203 14.104C34.8203 15.6487 34.5936 17.1168 34.1337 18.5019C33.715 19.8911 33.027 21.2789 32.0882 22.6648L32.0839 22.6712L32.0795 22.6774C31.1408 24.0184 29.9046 25.4499 28.3834 26.9711L16.522 38.8884L35.5243 38.8288V48H2.29225ZM14.1082 39.896L27.6763 26.264C29.1696 24.7706 30.3643 23.384 31.2603 22.104C32.1562 20.7813 32.7963 19.48 33.1803 18.2C33.6069 16.92 33.8203 15.5546 33.8203 14.104C33.8203 11.5866 33.1803 9.38931 31.9003 7.51197C30.6203 5.63464 28.8283 4.16264 26.5243 3.09597C24.2203 2.0293 21.5536 1.49597 18.5243 1.49597C15.5376 1.49597 12.6789 2.0933 9.94825 3.28797C7.21758 4.43997 4.59358 6.18931 2.07625 8.53597L6.81225 14.296C7.05865 14.0596 7.30269 13.8316 7.54435 13.6118C9.35313 11.967 11.0291 10.7871 12.5723 10.072C14.3216 9.21864 16.2203 8.79197 18.2683 8.79197C20.4016 8.79197 22.1509 9.34664 23.5163 10.456C24.9243 11.5653 25.6283 12.952 25.6283 14.616C25.6283 15.4266 25.5003 16.2373 25.2443 17.048C25.0309 17.816 24.6469 18.6053 24.0923 19.416C23.5803 20.2266 22.8763 21.1013 21.9803 22.04L3.29225 40.984V47H34.5243V39.832L14.1082 39.896Z" fill="#FFFDF4"/>
</svg>
