<svg width="53" height="49" viewBox="0 0 53 49" fill="none" xmlns="http://www.w3.org/2000/svg">
<path fill-rule="evenodd" clip-rule="evenodd" d="M43.1019 46.1039C44.1259 47.1279 45.3419 47.6399 46.7499 47.6399C48.1579 47.6399 49.3739 47.1279 50.3979 46.1039C51.4219 45.0799 51.9339 43.8639 51.9339 42.4559C51.9339 41.0053 51.4219 39.7679 50.3979 38.7439C49.3739 37.7199 48.1579 37.2079 46.7499 37.2079C45.3419 37.2079 44.1259 37.7199 43.1019 38.7439C42.0779 39.7679 41.5659 41.0053 41.5659 42.4559C41.5659 43.8639 42.0779 45.0799 43.1019 46.1039ZM46.7499 48.6399C45.0684 48.6399 43.6004 48.0166 42.3948 46.8111C41.1893 45.6055 40.5659 44.1375 40.5659 42.4559C40.5659 40.7406 41.1829 39.2487 42.3948 38.0368C43.6004 36.8313 45.0684 36.2079 46.7499 36.2079C48.4315 36.2079 49.8995 36.8313 51.105 38.0368C52.3169 39.2487 52.9339 40.7406 52.9339 42.4559C52.9339 44.1375 52.3106 45.6055 51.105 46.8111C49.8995 48.0166 48.4315 48.6399 46.7499 48.6399Z" fill="#FFFDF4"/>
<path fill-rule="evenodd" clip-rule="evenodd" d="M9.34236 46.8372L9.33436 46.8339C6.26457 45.5437 3.66614 43.7332 1.55594 41.3985L0.895508 40.6678L7.97177 34.074L8.65396 34.7903C10.2986 36.5172 11.8766 37.6808 13.3814 38.3375C14.9298 38.9947 16.8773 39.344 19.2578 39.344C20.9538 39.344 22.3809 39.1019 23.561 38.6464C24.7875 38.1469 25.6676 37.4812 26.2616 36.6776L26.2698 36.6665L26.2783 36.6557C26.9046 35.8554 27.2178 34.9431 27.2178 33.88C27.2178 32.8593 26.9656 32.0428 26.5026 31.3814C26.0155 30.6856 25.3491 30.1345 24.4732 29.733L24.4578 29.726L24.4426 29.7184C23.5857 29.29 22.5296 29.056 21.2418 29.056H14.6098V20.144H20.4738C22.3047 20.144 23.6188 19.6804 24.5379 18.8673C25.4459 18.0227 25.9378 16.859 25.9378 15.256C25.9378 14.266 25.6596 13.4066 25.1051 12.6441L25.0989 12.6357L25.0929 12.627C24.5215 11.8056 23.7275 11.1469 22.6767 10.659L22.664 10.6531C21.6682 10.1736 20.4981 9.91997 19.1298 9.91997C17.0272 9.91997 15.2614 10.2835 13.8026 10.9735C12.3857 11.6639 10.8241 12.9263 9.12433 14.8333L8.44789 15.5923L1.28098 8.98905L1.93516 8.25477C4.12113 5.80112 6.73341 3.90354 9.76311 2.56641C12.8357 1.18649 16.0677 0.495972 19.4498 0.495972C22.6809 0.495972 25.5787 1.0712 28.1203 2.24987C30.651 3.38093 32.6741 4.98104 34.1528 7.06045C35.6448 9.15856 36.3858 11.5607 36.3858 14.232C36.3858 16.8635 35.509 19.2232 33.7832 21.2756L33.7759 21.2843C32.6993 22.5355 31.424 23.5447 29.9593 24.3144C31.8143 25.0237 33.398 26.0318 34.6892 27.3531C36.6645 29.3304 37.6658 31.7374 37.6658 34.52C37.6658 37.2509 36.8507 39.722 35.2279 41.9012C33.6181 44.0629 31.4246 45.7425 28.6866 46.9544L28.6794 46.9576C25.9707 48.1314 22.8654 48.704 19.3858 48.704C15.8121 48.704 12.4638 48.0858 9.35043 46.8405L9.34236 46.8372ZM33.9778 28.056C32.5904 26.6347 30.8138 25.5892 28.648 24.9194C28.0831 24.7447 27.4917 24.5955 26.8738 24.472C27.4732 24.2993 28.046 24.0951 28.5922 23.8595C30.3399 23.1056 31.8151 22.0298 33.0178 20.632C34.5965 18.7546 35.3858 16.6213 35.3858 14.232C35.3858 11.7573 34.7032 9.55997 33.3378 7.63997C31.9725 5.71997 30.0951 4.22664 27.7058 3.15997C25.3165 2.05064 22.5645 1.49597 19.4498 1.49597C16.2072 1.49597 13.1138 2.15731 10.1698 3.47997C7.57747 4.62365 5.30872 6.19312 3.36357 8.18837C3.30514 8.2483 3.247 8.30863 3.18915 8.36933C3.01747 8.54949 2.84836 8.73304 2.68182 8.91997L8.37782 14.168C8.59964 13.9191 8.82009 13.6798 9.03917 13.4502C10.5478 11.8687 11.9913 10.7426 13.3698 10.072C14.9912 9.30397 16.9112 8.91997 19.1298 8.91997C20.6232 8.91997 21.9458 9.1973 23.0978 9.75197C24.2925 10.3066 25.2312 11.0746 25.9138 12.056C26.5965 12.9946 26.9378 14.0613 26.9378 15.256C26.9378 17.0906 26.3618 18.5413 25.2098 19.608C24.0578 20.632 22.4792 21.144 20.4738 21.144H15.6098V28.056H21.2418C22.6498 28.056 23.8658 28.312 24.8898 28.824C25.9138 29.2933 26.7245 29.9546 27.3218 30.808C27.9192 31.6613 28.2178 32.6853 28.2178 33.88C28.2178 35.16 27.8338 36.2906 27.0658 37.272C26.3405 38.2533 25.2952 39.0213 23.9298 39.576C22.6072 40.088 21.0498 40.344 19.2578 40.344C16.7832 40.344 14.6925 39.9813 12.9858 39.256C11.3218 38.5306 9.63648 37.272 7.92982 35.48L2.29782 40.728C2.43216 40.8766 2.5686 41.023 2.70715 41.1673C2.79949 41.2634 2.89275 41.3585 2.98696 41.4527C4.86152 43.3263 7.10647 44.8128 9.72182 45.912C12.7085 47.1066 15.9298 47.704 19.3858 47.704C22.7565 47.704 25.7218 47.1493 28.2818 46.04C30.8845 44.888 32.9325 43.3093 34.4258 41.304C35.9192 39.2986 36.6658 37.0373 36.6658 34.52C36.6658 32.0026 35.7698 29.848 33.9778 28.056Z" fill="#FFFDF4"/>
</svg>
